<svg xmlns="http://www.w3.org/2000/svg" viewBox="0 0 81.49 91.06"><defs><style>.cls-1{fill:#1d1d1b;}</style></defs><title>Recurso 1</title><g id="Capa_2" data-name="Capa 2"><g id="Capa_1-2" data-name="Capa 1"><path class="cls-1" d="M17,42.09a12.27,12.27,0,0,1,1.94-4.65,1.68,1.68,0,0,1,2.26-.36,1.48,1.48,0,0,1,.38,2.12,10.92,10.92,0,0,0-1.38,7c.5,2.75,1.33,5,5.9,5.8,2.9.52,3.19,2.75,3.4,4.37a9,9,0,0,0,3.28,6.45,19.18,19.18,0,0,0,4,2.43c.74.38,1.5.77,2.26,1.22a24.12,24.12,0,0,0,2-9A14.38,14.38,0,0,0,37.87,49l-.41-.53.13-.65a15.53,15.53,0,0,0,.31-3.46,6.54,6.54,0,0,1-2,.31,9,9,0,0,1-7.11-3.16c-2.79-3.33-2.15-7-2-9s.25-3.49.48-5.68c.37-3.39.82-7.61.48-9.12-1.05-4.62-3.43-4.54-4.33-4.51a1.52,1.52,0,1,1-.1-3c2.24-.07,6.19.73,7.6,6.91.44,2,0,6.08-.42,10.06C30.19,29.37,30,31,30,32.71s-.33,5,1.33,6.95a6.32,6.32,0,0,0,4.75,2,4.57,4.57,0,0,0,3.43-2.3,8.77,8.77,0,0,0-1.31-9.28l-.79-.95.82-.94a8.82,8.82,0,0,0,.37-11.34l-.73-.93L38.6,15a9,9,0,0,0,2.14-6.06c-.17-5.4-3.89-9-9-8.89-3.56.12-6.23,1.59-7.71,5-3.61-1-7.83,2.17-8.77,5.29s-.38,7.08,3.7,12a15.92,15.92,0,0,0,1.92,1.93A1.45,1.45,0,0,1,21,26.43a1.69,1.69,0,0,1-2.28.13,17.62,17.62,0,0,1-2.32-2.33A19.89,19.89,0,0,1,12,14.15c-6.17,4.21-7,12-4.15,16.23C4.29,35.79,9.88,42.42,17,42.09Z"/><path class="cls-1" d="M35.12,68a16.93,16.93,0,0,1-4.62-2.88,11.84,11.84,0,0,1-4.27-8.29C26,55.12,26,55.11,25.43,55a11.77,11.77,0,0,1-5.71-2.41,12.34,12.34,0,0,1-4.51,1A14.43,14.43,0,0,1,7.66,51.7a1.46,1.46,0,0,1-.45-2.11,1.71,1.71,0,0,1,2.25-.42,10.37,10.37,0,0,0,8.36.91,10.9,10.9,0,0,1-1.18-4.91c-6.81.18-13.1-3.84-13.38-10.57C-5.53,47.52,5,59.63,16.9,63.06a8,8,0,0,1,5.57,7.5A7.4,7.4,0,0,1,22,73a18.36,18.36,0,0,1,4.25,1.36A15.44,15.44,0,0,1,26.24,70a1.61,1.61,0,0,1,1.84-1.28,1.52,1.52,0,0,1,1.36,1.71s-.74,4.89,1.4,7.15A10.45,10.45,0,0,1,33.43,83a1.55,1.55,0,0,1-1.38,1.72l-.18,0a1.6,1.6,0,0,1-1.65-1.31c-.95-6.49-7.61-7.39-10-7.63a12.14,12.14,0,0,1-4.91,2.88,2.21,2.21,0,0,1-.49.09,1.62,1.62,0,0,1-1.58-1,1.52,1.52,0,0,1,1-2c3.22-1.07,5-2.93,5-5.22A5.09,5.09,0,0,0,15.88,66c-6.66-2.06-11.55-5.43-14.57-10-3.91,10.22,4.56,14.55,10,13.91a1.62,1.62,0,0,1,1.81,1.32,1.55,1.55,0,0,1-1.42,1.7c-.44,0-.87.09-1.29.1a14.21,14.21,0,0,1-4.94-.71c-1.28,5.64,4.5,15,15,11.18,1.32,7.4,12.22,10.82,18.51,3.79S40.9,70.38,35.12,68Z"/><path class="cls-1" d="M42.91,21.15A10.55,10.55,0,0,0,43,22.28a23.54,23.54,0,0,1,3.57-3.81l1.07-.85c3.41-2.7,5.12-4.06,4.82-8.6A1.53,1.53,0,0,1,54,7.45a1.51,1.51,0,0,1,1.66,1.37c.39,6-2.26,8.13-5.93,11.05l-1,.83a20,20,0,0,0-4.24,5l0,0-.33.67a8.46,8.46,0,0,0,.15,7.82l.31.59-.25.61a11.81,11.81,0,0,0-.07,9.1,13.88,13.88,0,0,1,4.45-3.65,14.15,14.15,0,0,1,7.79-1.7,17.2,17.2,0,0,1,12.34-5.82h.12c2.77-.09,8.22.69,10.63,4,1-5.88-1-10.71-7.17-12A10.23,10.23,0,0,0,67.68,14.5a13.08,13.08,0,0,1-5.06,6.68,12.17,12.17,0,0,1,2.52,6.49,1.52,1.52,0,0,1-1.52,1.49h0A1.51,1.51,0,0,1,62,27.72a9.48,9.48,0,0,0-1.94-4.82,13.79,13.79,0,0,0-6.38,8,1.57,1.57,0,0,1-1.45,1,1.79,1.79,0,0,1-.51-.07,1.44,1.44,0,0,1-1-1.83c1.94-5.88,5.27-8.06,8.21-10,2.5-1.63,4.67-3.05,5.87-6.73L65,12.12a9.68,9.68,0,0,0,.19-2.2C65,4.26,60-.19,54,0S43.17,5,43.35,10.62a9.52,9.52,0,0,0,1.07,4.12l.37.72-.45.69A8.64,8.64,0,0,0,42.91,21.15Z"/><path class="cls-1" d="M80.49,57.48a32.19,32.19,0,0,1-2.89,3,1.66,1.66,0,0,1-1,.41,1.56,1.56,0,0,1-1.18-.45,1.4,1.4,0,0,1,.05-2.07,28,28,0,0,0,3.26-3.56l0,0,.56-.88A11.49,11.49,0,0,0,77.2,39c-.1-.1-.2-.2-.32-.3l-.11-.1a12.19,12.19,0,0,0-7.84-2.29,14.11,14.11,0,0,0-10.61,5.4l-.7.89-1.1-.39c-1-.34-3.59-.18-6.31,1.25a10,10,0,0,0-5.1,6.3c-1.41,5.23,2.61,8.27,4,9.28a1.5,1.5,0,0,1,.59,2,1.57,1.57,0,0,1-1.32.75,1.52,1.52,0,0,1-.8-.18,11.88,11.88,0,0,1-4.08-3.74,10.39,10.39,0,0,0,1.91,10l.45.55a35.07,35.07,0,0,0,4.58,4c.69.53,1.3,1,1.76,1.4,4.37,3.73,3.52,8.29,2.46,10.18a1.6,1.6,0,0,1-1.34.79,1.53,1.53,0,0,1-.78-.17,1.43,1.43,0,0,1-.66-2c.2-.37,1.78-3.6-1.79-6.65-.43-.37-1-.81-1.63-1.3-1.09-.83-2.4-1.85-3.61-3A6.94,6.94,0,0,0,44.81,73a7.3,7.3,0,0,0,.87,3.24L46,77l-.4.67a8.62,8.62,0,0,0-1.24,4.69c.16,5,4.61,8.9,9.92,8.73a9.61,9.61,0,0,0,8.49-5.38l.27-.57.63-.21a8.43,8.43,0,0,0,4.2-3.2,9,9,0,0,1-3.74-1.25,7.66,7.66,0,0,1-3.73-5.78,14.74,14.74,0,0,1,1.18-6.51,14.47,14.47,0,0,1-4,.71,9.13,9.13,0,0,1-3.4-.45,1.45,1.45,0,0,1-.86-1.92,1.61,1.61,0,0,1,2-.81c1.75.66,7.28.07,9.17-3.28s2.46-5.28,1.73-7a4.09,4.09,0,0,0-3.07-2.49,6.7,6.7,0,0,0-5.62,1.67,1.62,1.62,0,0,1-2.21,0,1.41,1.41,0,0,1,.07-2.08,10.17,10.17,0,0,1,7-2.57,11.85,11.85,0,0,0,.07-5.4,1.48,1.48,0,0,1,1.16-1.78,1.58,1.58,0,0,1,1.89,1.07,14.79,14.79,0,0,1-.07,6.79,7.1,7.1,0,0,1,3.69,3.76c1.51,3.61-.3,6.92-3.37,12,0,0-2.66,4.69-2.32,8A4.73,4.73,0,0,0,65.88,78C74.51,83,84.74,69,80.49,57.48Z"/></g></g></svg>